<?xml version="1.0" encoding="UTF-8" standalone="no"?>
<!-- Created with Inkscape (http://www.inkscape.org/) -->

<svg
   xmlns:dc="http://purl.org/dc/elements/1.1/"
   xmlns:cc="http://creativecommons.org/ns#"
   xmlns:rdf="http://www.w3.org/1999/02/22-rdf-syntax-ns#"
   xmlns:svg="http://www.w3.org/2000/svg"
   xmlns="http://www.w3.org/2000/svg"
   xmlns:sodipodi="http://sodipodi.sourceforge.net/DTD/sodipodi-0.dtd"
   xmlns:inkscape="http://www.inkscape.org/namespaces/inkscape"
   width="100"
   height="100"
   viewBox="0 0 26.458333 26.458334"
   version="1.1"
   id="svg13625"
   inkscape:version="0.92.1 r15371"
   sodipodi:docname="indica.svg">
  <defs
     id="defs13619">
    <clipPath
       clipPathUnits="userSpaceOnUse"
       id="clipPath9406-5-9-1-5-3-8-6-4">
      <rect
         style="opacity:0.73280005;fill:#ffdd55;fill-opacity:1;stroke:none;stroke-width:0.5;stroke-miterlimit:4;stroke-dasharray:none;stroke-opacity:1"
         id="rect9408-2-0-59-4-6-7-1-03"
         width="477.41364"
         height="539.93207"
         x="573.77612"
         y="244.1604" />
    </clipPath>
    <clipPath
       clipPathUnits="userSpaceOnUse"
       id="clipPath9406-5-9-1-5-3-8-6-1-2-4-4-7">
      <rect
         style="opacity:0.73280005;fill:#ffdd55;fill-opacity:1;stroke:none;stroke-width:0.5;stroke-miterlimit:4;stroke-dasharray:none;stroke-opacity:1"
         id="rect9408-2-0-59-4-6-7-1-0-9-4-9-5"
         width="477.41364"
         height="539.93207"
         x="573.77612"
         y="244.1604" />
    </clipPath>
    <clipPath
       clipPathUnits="userSpaceOnUse"
       id="clipPath9406-5-9-1-5-3-8-6-1-2-4-4-7-3">
      <rect
         style="opacity:0.73280005;fill:#ffdd55;fill-opacity:1;stroke:none;stroke-width:0.5;stroke-miterlimit:4;stroke-dasharray:none;stroke-opacity:1"
         id="rect9408-2-0-59-4-6-7-1-0-9-4-9-5-6"
         width="477.41364"
         height="539.93207"
         x="573.77612"
         y="244.1604" />
    </clipPath>
  </defs>
  <sodipodi:namedview
     id="base"
     pagecolor="#ffffff"
     bordercolor="#666666"
     borderopacity="1.0"
     inkscape:pageopacity="0.0"
     inkscape:pageshadow="2"
     inkscape:zoom="3.8566844"
     inkscape:cx="29.710793"
     inkscape:cy="39.855942"
     inkscape:document-units="mm"
     inkscape:current-layer="layer1"
     showgrid="false"
     units="px"
     inkscape:window-width="1914"
     inkscape:window-height="1008"
     inkscape:window-x="0"
     inkscape:window-y="24"
     inkscape:window-maximized="1" />
  <metadata
     id="metadata13622">
    <rdf:RDF>
      <cc:Work
         rdf:about="">
        <dc:format>image/svg+xml</dc:format>
        <dc:type
           rdf:resource="http://purl.org/dc/dcmitype/StillImage" />
        <dc:title />
      </cc:Work>
    </rdf:RDF>
  </metadata>
  <g
     inkscape:label="Capa 1"
     inkscape:groupmode="layer"
     id="layer1"
     transform="translate(0,-270.54165)">
    <g
       id="g4672"
       transform="matrix(0.18006597,0,0,0.18006597,10.61156,232.96308)">
      <g
         inkscape:export-ydpi="94"
         inkscape:export-xdpi="94"
         transform="matrix(5.3307041,0,0,5.3307041,1310.415,-654.91162)"
         id="g13617">
        <path
           style="display:inline;fill:#f4d7d7;fill-opacity:1;stroke:none;stroke-width:0.06593057"
           d="m -250.54412,171.34653 c -0.0377,-0.19224 -0.60689,-2.19221 -1.26005,-2.19455 -0.65315,-0.002 -1.57513,-0.0441 -1.38674,0.99399 0.18838,1.03806 0.64711,1.69286 1.37655,1.84919 0.72945,0.15627 1.45946,0.15889 1.45946,0.15889 z"
           id="path6937-9-4-0-5-1-0-01-1"
           inkscape:connector-curvature="0"
           mask="none"
           clip-path="none"
           sodipodi:nodetypes="cccccc"
           inkscape:export-filename="/home/alumno/Escritorio/video_tutorial/vaca_04B.png"
           inkscape:export-xdpi="94"
           inkscape:export-ydpi="94" />
        <path
           sodipodi:nodetypes="ccccccccccccccc"
           inkscape:connector-curvature="0"
           style="display:inline;fill:#ffffff;stroke:#000000;stroke-width:0.18419486;stroke-miterlimit:4;stroke-dasharray:none"
           mask="none"
           clip-path="none"
           d="m -246.53006,168.01193 c -2.50454,0.0116 -3.88245,2.87907 -3.88245,2.87907 0,0 -0.0167,4.62213 -0.52267,7.80176 -0.59355,2.52746 -4.367,4.77906 -1.08591,4.59431 l 12.54539,0.0274 h 3.05993 1.84548 l 1.56999,-4.18367 -2.93842,-1.06328 -2.3382,3.46811 c -1.52641,-1.79658 -1.68218,-5.54365 -1.64222,-6.47709 0.0396,-0.92764 0.3325,-1.6319 -0.0459,-3.24693 -0.37844,-1.61508 -1.6067,-2.00353 -5.05938,-3.47595 -0.53949,-0.23006 -1.04181,-0.32632 -1.50561,-0.32419 z"
           id="path6935-0-4-61-1-9-7-6-3" />
        <path
           style="display:inline;fill:#d5f6ff;stroke:none;stroke-width:0.06593057"
           d="m -246.06388,173.70935 c 0,0 -1.03775,1.49054 -1.36502,1.84252 -0.32729,0.35202 -1.22723,1.29969 -1.28206,1.43531 -0.0548,0.13566 4.05981,4.30713 3.97791,4.41553 0.18365,1.82094 -0.0122,1.81362 -0.0122,1.81362 l -7.01286,-0.0208 c -3.0851,0.0709 -0.77304,-0.79815 0.86749,-4.07797 0.23427,-0.37206 0.61947,-5.35046 0.52437,-5.94771 -0.0855,-0.53663 -0.002,-3.60552 1.13817,-3.46557 1.14056,0.13992 2.93958,-1.5109 3.28635,0.28346 0.34675,1.79433 -0.12202,3.72163 -0.12202,3.72163 z"
           id="path7012-4-2-5-1-4-8-02-7"
           inkscape:connector-curvature="0"
           sodipodi:nodetypes="cssccccssscc"
           mask="none"
           clip-path="none"
           inkscape:export-filename="/home/alumno/Escritorio/video_tutorial/vaca_04B.png"
           inkscape:export-xdpi="94"
           inkscape:export-ydpi="94" />
        <path
           style="display:inline;fill:#000000;fill-opacity:1;stroke:#000000;stroke-width:0.0380353px;stroke-linecap:butt;stroke-linejoin:miter;stroke-opacity:1"
           d="m -244.88729,172.94698 c 0,0 0.44614,1.78299 0.75254,2.05305 0.30641,0.27004 1.4585,1.48724 2.66961,1.34034 1.19282,-0.14469 1.41261,-0.85501 1.41578,-1.7387 0.003,-0.88368 0.43128,-3.17265 -0.41358,-3.29094 -0.84485,-0.11832 -4.42435,1.63625 -4.42435,1.63625 z"
           id="path6983-98-7-9-0-7-6-8-8"
           inkscape:connector-curvature="0"
           sodipodi:nodetypes="cssssc"
           mask="none"
           clip-path="none"
           inkscape:export-filename="/home/alumno/Escritorio/video_tutorial/vaca_04B.png"
           inkscape:export-xdpi="94"
           inkscape:export-ydpi="94" />
        <path
           style="display:inline;fill:#f4d7d7;fill-opacity:1;stroke:none;stroke-width:0.06593057"
           d="m -239.77562,172.50425 c 0,0 1.00652,-2.10959 1.81337,-2.10669 0.80684,0.003 1.6908,-0.0708 1.49554,0.81221 -0.19528,0.883 -0.42663,1.11271 -1.54236,1.53133 -1.11574,0.41867 -2.03825,0.53062 -2.03825,0.53062 z"
           id="path6939-3-5-1-4-3-1-4-0"
           inkscape:connector-curvature="0"
           mask="none"
           clip-path="none"
           sodipodi:nodetypes="ccsccc"
           inkscape:export-filename="/home/alumno/Escritorio/video_tutorial/vaca_04B.png"
           inkscape:export-xdpi="94"
           inkscape:export-ydpi="94" />
        <path
           style="display:inline;fill:#ffffff;fill-opacity:1;stroke:#000000;stroke-width:0.18419486;stroke-miterlimit:4;stroke-dasharray:none;stroke-opacity:1"
           d="m -239.83906,172.63868 c 0.65748,-1.48151 1.64061,-2.3148 2.31366,-1.41181 0.64581,0.86644 -1.36054,1.6404 -2.22168,1.77414 l -0.11412,0.28702 c 0.99658,0.31909 4.10247,-0.49104 3.97285,-1.93357 -0.0811,-0.90159 -0.48175,-1.50083 -1.12048,-1.6153 -0.38324,-0.0687 -0.85191,0.0374 -1.38977,0.3563 -1.27969,0.75886 -1.535,1.43775 -1.52452,2.3133"
           id="path5154-4-0-1-7-8-0-4-4-9"
           inkscape:connector-curvature="0"
           sodipodi:nodetypes="csccsssc"
           mask="none"
           clip-path="none"
           inkscape:export-filename="/home/alumno/Escritorio/video_tutorial/vaca_04B.png"
           inkscape:export-xdpi="94"
           inkscape:export-ydpi="94" />
        <path
           sodipodi:type="arc"
           style="display:inline;fill:#ffffff;fill-opacity:1;stroke:none;stroke-width:0.0380353"
           id="path6985-4-6-77-6-6-9-91-5"
           sodipodi:cx="-241.7684"
           sodipodi:cy="173.5163"
           sodipodi:rx="2.1900229"
           sodipodi:ry="2.2668657"
           d="m -239.58471,173.34406 a 2.1900229,2.2668657 0 0 1 -2.00537,2.43157 2.1900229,2.2668657 0 0 1 -2.36007,-2.06242 2.1900229,2.2668657 0 0 1 1.97959,-2.4541 2.1900229,2.2668657 0 0 1 2.38169,2.03561"
           transform="rotate(0.20537645)"
           sodipodi:start="6.2071318"
           sodipodi:end="6.1852847"
           sodipodi:open="true"
           mask="none"
           clip-path="none"
           inkscape:export-filename="/home/alumno/Escritorio/video_tutorial/vaca_04B.png"
           inkscape:export-xdpi="94"
           inkscape:export-ydpi="94" />
        <path
           transform="rotate(0.20537645)"
           sodipodi:type="arc"
           style="display:inline;fill:#ffffff;fill-opacity:1;stroke:none;stroke-width:0.0380353"
           id="path6985-6-2-3-1-2-1-2-7-2"
           sodipodi:cx="-247.36862"
           sodipodi:cy="173.36763"
           sodipodi:rx="2.1900229"
           sodipodi:ry="2.2668657"
           d="m -245.18493,173.19539 a 2.1900229,2.2668657 0 0 1 -2.00537,2.43158 2.1900229,2.2668657 0 0 1 -2.36007,-2.06242 2.1900229,2.2668657 0 0 1 1.97959,-2.45411 2.1900229,2.2668657 0 0 1 2.38169,2.03562"
           sodipodi:start="6.2071318"
           sodipodi:end="6.1852847"
           sodipodi:open="true"
           mask="none"
           clip-path="none"
           inkscape:export-filename="/home/alumno/Escritorio/video_tutorial/vaca_04B.png"
           inkscape:export-xdpi="94"
           inkscape:export-ydpi="94" />
        <path
           style="display:inline;fill:#ffffff;fill-opacity:1;stroke:#000000;stroke-width:0.18419486;stroke-miterlimit:4;stroke-dasharray:none;stroke-opacity:1"
           d="m -250.73502,171.6571 c -0.38639,-1.57412 -1.20748,-2.56748 -2.02898,-1.79706 -0.78826,0.73924 1.05051,1.85429 1.87466,2.13754 l 0.0618,0.30265 c -1.03719,0.13864 -3.95194,-1.2056 -3.5704,-2.6028 0.23846,-0.87324 0.73844,-1.3926 1.38735,-1.39282 0.38934,-1.4e-4 0.83203,0.18677 1.30533,0.59541 1.12612,0.97228 1.25792,1.68551 1.09347,2.54555"
           id="path5154-0-4-7-2-2-0-5-1"
           inkscape:connector-curvature="0"
           sodipodi:nodetypes="csccsssc"
           mask="none"
           clip-path="none"
           inkscape:export-filename="/home/alumno/Escritorio/video_tutorial/vaca_04B.png"
           inkscape:export-xdpi="94"
           inkscape:export-ydpi="94" />
        <path
           style="display:inline;fill:#9d8167;fill-opacity:1;stroke:#000000;stroke-width:0.10834992;stroke-miterlimit:4;stroke-dasharray:none"
           d="m -245.07188,166.41704 c -5.76461,-0.0718 -5.65815,4.81906 -5.77656,5.94732 -0.11842,1.12825 -0.78163,3.65868 -0.54559,3.88767 0.23605,0.22901 0.3163,0.0524 0.52824,-0.13478 0.19459,-0.17188 0.45055,-2.78408 0.41238,-3.20354 0.0435,0.35204 0.34547,1.70803 2.44597,2.04249 1.43819,0.229 2.26447,-1.41808 2.59478,-1.6702 0.33031,-0.25212 0.73275,-0.12879 0.9622,0.15915 0.22945,0.28795 0.16576,1.54116 1.98328,1.80074 1.45942,0.20841 2.27453,-1.52635 2.27453,-1.52635 0,0 0.62565,2.20176 0.87891,2.50516 0.35943,0.43063 0.72708,0.10964 0.6182,-0.36626 -0.14421,-0.63036 -1.32032,-1.62779 -1.07262,-3.50786 0.2477,-1.88007 -0.2182,-5.87015 -5.30372,-5.93354 z m -3.11462,4.36439 c 0.91928,-0.0219 1.70698,0.70805 1.79434,1.68232 l 0.004,0.0401 c 0.0704,1.02332 -0.66056,1.91349 -1.6326,1.98795 -0.97204,0.0744 -1.81747,-0.69434 -1.88784,-1.71763 -0.0704,-1.0233 0.66058,-1.91347 1.63261,-1.98797 0.0299,-0.002 0.0599,-0.004 0.0895,-0.004 z m 5.6528,-0.13526 c 0.97916,-0.023 1.819,0.7366 1.91215,1.75054 l 0.003,0.0416 c 0.0751,1.06495 -0.70271,1.99167 -1.73803,2.06908 -1.03534,0.0775 -1.93561,-0.7228 -2.01066,-1.78775 -0.0751,-1.06495 0.70269,-1.99166 1.73803,-2.06907 0.0319,-0.002 0.0635,-0.004 0.0951,-0.004 z"
           id="path5152-7-9-1-5-0-6-7-3"
           inkscape:connector-curvature="0"
           sodipodi:nodetypes="sssscsssscsssscccsscscccsscccc"
           mask="none"
           clip-path="none"
           inkscape:export-filename="/home/alumno/Escritorio/video_tutorial/vaca_04B.png"
           inkscape:export-xdpi="94"
           inkscape:export-ydpi="94" />
        <path
           style="display:inline;fill:#000000;fill-opacity:1;stroke:none;stroke-width:0.06593057"
           d="m -249.62123,168.22764 c -0.28758,-0.29819 -1.21079,-1.77302 -0.90527,-2.11422 0.64584,-0.72136 1.82105,1.29972 1.82105,1.29972 0,0 -0.66371,0.40886 -0.91578,0.8145 z"
           id="path5962-64-1-5-8-6-8-6-2"
           inkscape:connector-curvature="0"
           sodipodi:nodetypes="cscc"
           mask="none"
           clip-path="none"
           inkscape:export-filename="/home/alumno/Escritorio/video_tutorial/vaca_04B.png"
           inkscape:export-xdpi="94"
           inkscape:export-ydpi="94" />
        <path
           style="display:inline;fill:#000000;fill-opacity:1;stroke:none;stroke-width:0.06593057"
           d="m -241.3247,167.6515 c 0,0 1.46953,-1.68204 1.76515,-1.29775 0.49049,0.63765 -0.55772,2.02531 -1.04556,2.15614 -0.29499,-0.61017 -0.71959,-0.85839 -0.71959,-0.85839 z"
           id="path5964-7-1-9-6-3-9-2-7"
           inkscape:connector-curvature="0"
           sodipodi:nodetypes="cscc"
           mask="none"
           clip-path="none"
           inkscape:export-filename="/home/alumno/Escritorio/video_tutorial/vaca_04B.png"
           inkscape:export-xdpi="94"
           inkscape:export-ydpi="94" />
        <path
           style="display:inline;fill:#aaeeff;stroke:none;stroke-width:0.06593057"
           d="m -244.43237,171.97847 c 0,0 0.70594,-1.46017 1.93596,-1.47229 1.22064,0.019 1.61954,0.68989 1.89563,1.74537 0,0 -0.17834,-1.1629 -0.49394,-1.54824 -0.32752,-0.3999 -0.91002,-0.69486 -1.47681,-0.67766 -0.5311,0.0161 -1.17318,0.37038 -1.48231,0.85915 -0.29937,0.47337 -0.37853,1.09367 -0.37853,1.09367 z"
           id="path6961-0-7-6-4-6-2-4-3"
           inkscape:connector-curvature="0"
           sodipodi:nodetypes="cccsssc"
           mask="none"
           clip-path="none"
           inkscape:export-filename="/home/alumno/Escritorio/video_tutorial/vaca_04B.png"
           inkscape:export-xdpi="94"
           inkscape:export-ydpi="94" />
        <path
           style="display:inline;fill:#aaeeff;stroke:none;stroke-width:0.06593057"
           d="m -250.08569,172.12676 c 0,0 0.70594,-1.46019 1.93596,-1.47232 1.22064,0.019 1.61954,0.68992 1.89562,1.7454 0,0 -0.17834,-1.16291 -0.49393,-1.54824 -0.32752,-0.39992 -0.91002,-0.69486 -1.47681,-0.67769 -0.5311,0.0161 -1.17319,0.37041 -1.48231,0.85916 -0.29938,0.47336 -0.37853,1.09369 -0.37853,1.09369 z"
           id="path6961-8-5-1-73-7-1-6-2-3"
           inkscape:connector-curvature="0"
           sodipodi:nodetypes="cccsssc"
           mask="none"
           clip-path="none"
           inkscape:export-filename="/home/alumno/Escritorio/video_tutorial/vaca_04B.png"
           inkscape:export-xdpi="94"
           inkscape:export-ydpi="94" />
        <path
           style="display:inline;fill:#aaeeff;fill-opacity:1;stroke:none;stroke-width:0.06593057"
           d="m -246.30447,171.71242 0.13295,0.4231 c 0,0 0.36515,-0.037 0.88383,-0.0352 0.44184,0.002 0.72994,0.0219 0.72994,0.0219 l 0.15534,-0.4605 c 0,0 -0.3268,0.0564 -0.92232,0.0543 -0.59554,-0.002 -0.97974,-0.003 -0.97974,-0.003 z"
           id="path6981-2-8-65-2-5-6-5-2"
           inkscape:connector-curvature="0"
           sodipodi:nodetypes="ccsccsc"
           mask="none"
           clip-path="none"
           inkscape:export-filename="/home/alumno/Escritorio/video_tutorial/vaca_04B.png"
           inkscape:export-xdpi="94"
           inkscape:export-ydpi="94" />
        <g
           style="display:inline"
           id="g3747-6-9-6-7-5-52-3"
           transform="matrix(0.03803506,1.3633708e-4,-1.3633708e-4,0.03803506,-396.19339,152.55099)"
           inkscape:export-filename="/home/alumno/Escritorio/video_tutorial/vaca_04B.png"
           inkscape:export-xdpi="94"
           inkscape:export-ydpi="94"
           mask="none"
           clip-path="none">
          <path
             inkscape:connector-curvature="0"
             id="path5156-8-51-3-4-2-65-0-9-8"
             d="m 3940.927,505.10211 c 1.516,21.18198 -13.383,39.66183 -33.2779,41.27592 -19.8948,1.61402 -37.2518,-14.24882 -38.7678,-35.43079 -1.516,-21.18198 13.383,-39.66183 33.2779,-41.27593 19.5882,-1.58914 36.7791,13.77787 38.6993,34.59367"
             style="display:inline;fill:#000000;fill-opacity:1;stroke:none" />
          <path
             inkscape:connector-curvature="0"
             id="path5156-8-5-6-3-8-9-6-4-77-6"
             d="m 4085.6179,501.7779 c 1.516,21.18199 -13.383,39.66183 -33.2779,41.27592 -19.8948,1.61402 -37.2518,-14.24882 -38.7678,-35.43078 -1.516,-21.18198 13.383,-39.66183 33.2779,-41.27593 19.5882,-1.58914 36.7791,13.77787 38.6993,34.59366"
             style="display:inline;fill:#000000;fill-opacity:1;stroke:none" />
        </g>
        <g
           style="display:inline"
           id="g3741-7-12-9-9-8-6-1"
           transform="matrix(0.03803506,1.3633708e-4,-1.3633708e-4,0.03803506,-396.98094,153.01312)"
           inkscape:export-filename="/home/alumno/Escritorio/video_tutorial/vaca_04B.png"
           inkscape:export-xdpi="94"
           inkscape:export-ydpi="94"
           mask="none"
           clip-path="none">
          <path
             sodipodi:nodetypes="csscsc"
             inkscape:connector-curvature="0"
             id="path6987-0-1-4-7-9-0-3-7-8-6"
             d="m 4023.8296,473.02454 c 0,0 31.1922,2.90819 41.5179,15.18716 10.3258,12.27898 12.391,21.97292 24.0936,28.43554 11.7025,6.46262 17.2097,3.87758 17.2097,3.87758 0,0 18.1056,-45.96608 -22.7168,-66.88816 -38.5778,-19.77166 -60.1044,19.38788 -60.1044,19.38788 z"
             style="display:inline;opacity:0.43000004;fill:#e6e6e6;stroke:none" />
          <path
             sodipodi:open="true"
             sodipodi:end="6.1852847"
             sodipodi:start="6.2071318"
             transform="translate(4501.6594,-306.73121)"
             d="m -419.74028,780.82137 a 7.5761442,8.586297 0 0 1 -6.93736,9.21017 7.5761442,8.586297 0 0 1 -8.16439,-7.81192 7.5761442,8.586297 0 0 1 6.84817,-9.2955 7.5761442,8.586297 0 0 1 8.2392,7.71037"
             sodipodi:ry="8.586297"
             sodipodi:rx="7.5761442"
             sodipodi:cy="781.47375"
             sodipodi:cx="-427.29453"
             id="path6989-1-1-3-8-7-1-1-0"
             style="display:inline;fill:#ffffff;fill-opacity:1;stroke:none"
             sodipodi:type="arc" />
          <path
             sodipodi:nodetypes="csscsc"
             inkscape:connector-curvature="0"
             id="path6987-0-2-1-9-1-4-7-20-9"
             d="m 3873.8164,477.45607 c 0,0 31.1922,2.90819 41.5179,15.18716 10.3258,12.27898 12.391,21.97292 24.0936,28.43554 11.7025,6.46262 17.2097,3.87758 17.2097,3.87758 0,0 18.1056,-45.96608 -22.7168,-66.88816 -38.5778,-19.77166 -60.1044,19.38788 -60.1044,19.38788 z"
             style="display:inline;opacity:0.43000004;fill:#e6e6e6;stroke:none" />
          <path
             sodipodi:open="true"
             sodipodi:end="6.1852847"
             sodipodi:start="6.2071318"
             transform="translate(4351.3765,-304.15304)"
             d="m -419.74028,780.82137 a 7.5761442,8.586297 0 0 1 -6.93736,9.21017 7.5761442,8.586297 0 0 1 -8.16439,-7.81192 7.5761442,8.586297 0 0 1 6.84817,-9.2955 7.5761442,8.586297 0 0 1 8.2392,7.71037"
             sodipodi:ry="8.586297"
             sodipodi:rx="7.5761442"
             sodipodi:cy="781.47375"
             sodipodi:cx="-427.29453"
             id="path6989-6-9-7-0-3-5-2-3-1"
             style="display:inline;fill:#ffffff;fill-opacity:1;stroke:none"
             sodipodi:type="arc" />
        </g>
        <path
           style="display:inline;fill:#000000;fill-opacity:1;stroke:#000000;stroke-width:0.87648851px;stroke-linecap:butt;stroke-linejoin:miter;stroke-opacity:1"
           d="m 705.80471,692.77113 c -0.3769,-12.8164 -1.3208,-20.6945 -5.724,-22.4557 -4.403,-1.7612 -10.127,0.4403 -9.2464,13.6495 0.8806,13.2093 -0.4403,26.8588 -0.4403,26.8588 0,0 -1.3209,-13.6495 -11.0077,-12.7689 -8.77,0.7973 -5.7241,14.5302 -5.7241,14.5302 0,0 -1.3208,-12.3287 -9.2465,-11.8883 -6.6962,0.372 -6.6045,14.5301 -6.6045,14.5301 2.65192,27.37148 2.78508,48.94843 8.46368,54.35464 13.13957,1.59291 38.75121,1.62887 45.64156,-3.75441 z"
           id="path3124-1-3-6-7-7-9-1-0-3-7-2-7-9"
           inkscape:connector-curvature="0"
           sodipodi:nodetypes="csscscscccc"
           mask="none"
           clip-path="url(#clipPath9406-5-9-1-5-3-8-6-1-2-4-4-7-3)"
           transform="matrix(-0.06249972,-0.02852177,-0.02851725,0.06250964,-169.60506,150.50142)"
           inkscape:export-xdpi="94.911591"
           inkscape:export-ydpi="94.911591"
           inkscape:export-filename="/home/alumno/Escritorio/video_tutorial/vaca_02.png" />
        <g
           id="g13378-9-4-1"
           transform="matrix(0.11425534,0.04796254,-0.04796254,0.11425534,-187.51132,110.80762)">
          <path
             inkscape:connector-curvature="0"
             id="path7018-2-8-1-3-4-2-6-5"
             d="m -238.60557,697.21187 6.10743,5.46876 c 0,0 19.45476,-3.67235 23.3039,-6.35926 3.84912,-2.68695 11.2011,-9.03004 11.2011,-9.03004 l -0.18082,-5.4004 c 0,0 -12.86253,10.4981 -20.43665,12.54858 -7.57413,2.05048 -19.99496,2.77236 -19.99496,2.77236 z"
             style="display:inline;fill:#000000;fill-opacity:1;stroke:#000000;stroke-width:0.2881951px;stroke-linecap:butt;stroke-linejoin:miter;stroke-opacity:1" />
          <path
             sodipodi:nodetypes="ccszcsc"
             inkscape:connector-curvature="0"
             id="path13288-4-2-3-2-3-0"
             d="m -240.41583,690.96378 9.2859,11.6438 c 0,0 18.01184,-3.70022 23.1913,-5.55088 5.17938,-1.85063 9.99282,-8.1316 11.41702,-12.99371 1.42418,-4.86211 -1.97093,-12.95229 -1.97093,-12.95229 0,0 -21.2117,14.43512 -26.74027,18.03294 -5.52853,3.5978 -15.18302,1.82014 -15.18302,1.82014 z"
             style="fill:#c83737;stroke:#000000;stroke-width:0.42778683px;stroke-linecap:butt;stroke-linejoin:miter;stroke-opacity:1" />
          <path
             inkscape:connector-curvature="0"
             id="path13290-5-1-1-8-8-9"
             d="m -231.42499,689.83022 3.572,3.08311 c 0,0 18.18316,-6.72641 19.35283,-8.06212 1.16967,-1.3357 -0.35513,-6.98584 -0.35513,-6.98584 l -15.18885,5.42708 z"
             style="fill:#ffffff;stroke:none;stroke-width:0.28222224" />
          <path
             sodipodi:nodetypes="sscczsccs"
             inkscape:connector-curvature="0"
             id="path5150-81-5-0-5-4-9-0-4"
             d="m -243.00049,690.68067 c 7.05985,5.7644 13.9791,-1.05847 25.24227,-5.78868 11.25382,-4.72625 18.41577,-3.79439 19.68055,-14.06652 -0.68636,-7.86298 -3.2195,-9.24104 -6.17886,-6.03392 -0.82759,-4.24309 -3.20978,-3.33106 -7.21746,-3.30006 -4.00767,0.031 -5.45551,6.44507 -13.063,9.23597 -3.80373,1.39544 -10.33343,-1.00256 -14.69833,-0.93654 -6.29837,1.1639 -6.04006,5.26196 -6.44285,10.52085 -5.33851,1.334 0.25787,8.39313 2.67768,10.3689 z"
             style="display:inline;fill:#deccd8;fill-opacity:1;stroke:none;stroke-width:0.28222224" />
          <path
             inkscape:connector-curvature="0"
             id="path13290-5-2-1-6-7-4-9"
             d="m -227.43837,698.90984 0.40589,-4.70109 c 0,0 17.71593,-7.87515 19.48583,-7.73507 1.76993,0.14004 4.62184,5.2504 4.62184,5.2504 l -14.66481,6.71556 z"
             style="fill:#ffffff;stroke:none;stroke-width:0.28222224" />
          <path
             sodipodi:nodetypes="zszz"
             inkscape:connector-curvature="0"
             id="path6030-7-6-7-0-9-3-9-6"
             d="m -233.91216,696.20857 c 14.51314,5.81545 25.88534,0.0351 37.60998,-14.49742 1.92823,-2.39 2.12717,18.32356 -15.62197,25.13221 -17.74911,6.80868 -36.50107,-16.45027 -21.98801,-10.63479 z"
             style="display:inline;fill:#deccd8;fill-opacity:1;stroke:none;stroke-width:0.28222224" />
          <path
             sodipodi:open="true"
             sodipodi:end="6.1852847"
             sodipodi:start="6.2071318"
             transform="rotate(-19.662187)"
             d="m -415.24992,561.96398 a 5.455122,4.1170731 0 0 1 -4.99517,4.41622 5.455122,4.1170731 0 0 1 -5.87868,-3.74577 5.455122,4.1170731 0 0 1 4.93095,-4.45713 5.455122,4.1170731 0 0 1 5.93255,3.69707"
             sodipodi:ry="4.1170731"
             sodipodi:rx="5.455122"
             sodipodi:cy="562.27679"
             sodipodi:cx="-420.68927"
             id="path7014-8-3-4-0-4-6-7-8"
             style="display:inline;fill:#000000;fill-opacity:1;stroke:none;stroke-width:0.28222221"
             sodipodi:type="arc" />
          <path
             sodipodi:open="true"
             sodipodi:end="6.1852847"
             sodipodi:start="6.2071318"
             transform="rotate(-19.662187)"
             d="m -448.39173,559.8103 a 5.2492676,4.0141459 0 0 1 -4.80667,4.30581 5.2492676,4.0141459 0 0 1 -5.65685,-3.65212 5.2492676,4.0141459 0 0 1 4.74488,-4.3457 5.2492676,4.0141459 0 0 1 5.70868,3.60465"
             sodipodi:ry="4.0141459"
             sodipodi:rx="5.2492676"
             sodipodi:cy="560.1153"
             sodipodi:cx="-453.62582"
             id="path7016-3-1-5-4-2-1-9-2"
             style="display:inline;fill:#000000;fill-opacity:1;stroke:none;stroke-width:0.28222221"
             sodipodi:type="arc" />
        </g>
      </g>
      <g
         id="g5414-6-1"
         transform="matrix(1.1351262,0,0,1.1351262,-30.333556,-373.36058)">
        <path
           style="fill:#005e00;fill-opacity:1;fill-rule:evenodd;stroke:none;stroke-width:0.26458332px;stroke-linecap:butt;stroke-linejoin:miter;stroke-opacity:1"
           d="m 18.753866,551.83192 -0.661901,-1.02964 c 8.652935,-7.7149 21.77494,-9.54406 32.65379,-9.78141 -0.09864,-0.84624 3.973259,2.87015 -0.147089,2.57407 -10.235981,1.60976 -21.796614,5.12487 -31.8448,8.23698 z"
           id="path5205-8-7"
           inkscape:connector-curvature="0"
           sodipodi:nodetypes="ccccc" />
        <path
           style="fill:#008000;fill-rule:evenodd;stroke:#006500;stroke-width:0.22057384px;stroke-linecap:butt;stroke-linejoin:miter;stroke-opacity:1"
           d="m 4.9710248,554.39886 c 5.4719752,3.45169 19.6058962,-7.08423 26.1302712,-8.87156 5.368225,-1.47062 12.242834,-1.59673 16.968637,-3.32289 2.422794,-0.88494 3.343496,2.89985 5.765772,2.01507 4.458418,-0.81782 4.694013,-6.09031 3.09528,-10.76793 -2.758156,-4.66685 -3.788023,-6.2136 -8.126801,-7.68951 -5.918143,-1.98353 -13.674666,-2.41989 -21.153658,-1.93208 -0.282453,0.0184 -0.705682,0.0422 -1.124231,0.0671 -0.397073,0.0236 -0.789935,0.0483 -1.054394,0.0705 -9.195831,0.77109 -17.2152941,2.8898 -19.1308491,5.12718 -8.0790173,4.42645 -11.346867,22.57099 -1.3700271,25.30411 z"
           id="path5203-9-2"
           inkscape:connector-curvature="0"
           sodipodi:nodetypes="ccccccsssccc" />
        <path
           style="fill:#006700;fill-opacity:1;fill-rule:evenodd;stroke:none;stroke-width:0.3327235px;stroke-linecap:butt;stroke-linejoin:miter;stroke-opacity:1"
           d="m 25.279037,533.34605 c 0.382724,-1.69646 -0.494275,-4.40614 -1.781015,-5.76938 l 2.615004,-0.41168 c 0.375377,1.43071 0.67462,4.07915 0.243378,5.83187 z"
           id="path5211-2-7"
           inkscape:connector-curvature="0"
           sodipodi:nodetypes="ccccc" />
        <path
           style="fill:#007600;fill-opacity:1;fill-rule:evenodd;stroke:none;stroke-width:0.26458332px;stroke-linecap:butt;stroke-linejoin:miter;stroke-opacity:1"
           d="m 18.964855,524.99052 c -26.3641731,-0.24956 -28.0386752,36.78573 -5.909339,29.40928 6.166067,-2.05537 11.770904,-6.57736 18.002871,-9.07016 1.567956,-0.0652 20.071259,-3.2182 18.415149,-3.57309 -17.521407,-3.75464 -45.3444773,10.40786 -30.508681,-16.76603 z"
           id="path5215-6-2"
           inkscape:connector-curvature="0"
           sodipodi:nodetypes="cccsc" />
      </g>
      <path
         sodipodi:nodetypes="ccccc"
         inkscape:connector-curvature="0"
         id="path5512-7-5"
         d="m 3.9653341,318.39636 c 12.5911399,2.39332 21.3324789,-3.71557 33.6314679,-11.17223 -0.937519,-1.79017 -1.804918,-4.56517 -2.648849,-5.7033 -12.91694,7.11788 -21.36928,15.41272 -30.0075999,14.68913 z"
         style="fill:#0091b5;fill-opacity:1;fill-rule:evenodd;stroke:none;stroke-width:0.27880904px;stroke-linecap:butt;stroke-linejoin:miter;stroke-opacity:1" />
      <path
         sodipodi:nodetypes="ccccc"
         inkscape:connector-curvature="0"
         id="path5512-7-5-9"
         d="m 1.7595641,318.56846 c -12.5911401,2.39332 -21.6106401,-4.27188 -33.9096311,-11.72854 0.84479,-1.97561 2.1758,-3.54527 3.11245,-5.51787 12.916941,7.11788 21.4620011,16.52535 30.1003191,15.80176 z"
         style="fill:#0091b5;fill-opacity:1;fill-rule:evenodd;stroke:none;stroke-width:0.27880904px;stroke-linecap:butt;stroke-linejoin:miter;stroke-opacity:1" />
      <g
         transform="translate(-325.17558,-341.22365)"
         id="g5704">
        <path
           style="fill:#00aad4;fill-opacity:1;fill-rule:evenodd;stroke:none;stroke-width:0.697671px;stroke-linecap:butt;stroke-linejoin:miter;stroke-opacity:1"
           d="m 327.24688,662.33572 c -15.42688,8.25106 -6.99899,23.23758 -7.81532,33.56231 1.71962,-2.12413 2.67711,-1.45674 4.08931,-4.07293 3.40184,-6.30212 6.28424,-17.44702 5.95897,-29.71464 z"
           id="path5277-4-2"
           inkscape:connector-curvature="0"
           sodipodi:nodetypes="ccscc" />
        <path
           style="fill:#00aad4;fill-opacity:1;fill-rule:evenodd;stroke:none;stroke-width:0.65231878px;stroke-linecap:butt;stroke-linejoin:miter;stroke-opacity:1"
           d="m 330.22397,661.03142 c 15.42688,7.2132 5.08503,14.99787 5.90136,24.0239 -5.86203,-6.33013 -8.59461,-9.04422 -8.13432,-24.22081 z"
           id="path5277-9-9-6"
           inkscape:connector-curvature="0"
           sodipodi:nodetypes="cccc" />
        <path
           style="fill:#0097bc;fill-opacity:1;fill-rule:evenodd;stroke:none;stroke-width:0.33852673px;stroke-linecap:butt;stroke-linejoin:miter;stroke-opacity:1"
           d="m 327.11725,662.54574 c -1.43574,0.0287 -6.09396,4.03989 -7.09655,6.49373 -0.18017,0.44099 0.24436,0.8059 0.59848,0.85906 2.3899,1.59323 3.60186,-2.51142 5.71183,-1.72019 2.32184,1.80575 2.46956,5.71298 2.7176,5.91843 -1.88058,-24.85911 10.6392,1.02863 7.74989,-8.51238 -1.6024,-1.57491 -3.54391,-4.00905 -5.77263,-4.27075 -1.72463,-0.11912 -2.76788,0.57674 -4.26213,0.79021 z"
           id="path5309-5-1"
           inkscape:connector-curvature="0"
           sodipodi:nodetypes="csccccccc" />
        <path
           style="fill:#0097bc;fill-opacity:1;fill-rule:evenodd;stroke:none;stroke-width:0.33852673px;stroke-linecap:butt;stroke-linejoin:miter;stroke-opacity:1"
           d="m 323.63677,667.98899 c -3.18177,7.19243 -4.45988,14.38485 -4.04573,21.57728 1.24043,-5.93395 2.01147,-18.55245 5.73146,-22.42011 z"
           id="path5311-4-6"
           inkscape:connector-curvature="0"
           sodipodi:nodetypes="cccc" />
        <path
           style="fill:#0097bc;fill-opacity:1;fill-rule:evenodd;stroke:none;stroke-width:0.21053299px;stroke-linecap:butt;stroke-linejoin:miter;stroke-opacity:1"
           d="m 331.85505,662.95602 c 2.44287,3.62324 3.42417,7.2465 3.1062,10.86974 -0.95237,-2.98928 -1.54435,-9.34597 -4.40045,-11.29434 z"
           id="path5311-0-8-1"
           inkscape:connector-curvature="0"
           sodipodi:nodetypes="cccc" />
        <path
           style="fill:#00aad4;fill-opacity:1;fill-rule:evenodd;stroke:none;stroke-width:0.44303313px;stroke-linecap:butt;stroke-linejoin:miter;stroke-opacity:1"
           d="m 324.41959,658.52751 c -1.30711,-1.93272 8.77189,-2.97151 9.56549,-1.02095 1.95138,1.68189 -2.20973,5.87131 -5.26592,5.74956 l -1.07538,-0.12128 c -2.61117,-1.33085 -2.39988,-3.04022 -3.22419,-4.60733 z"
           id="path5275-0-0"
           inkscape:connector-curvature="0"
           sodipodi:nodetypes="ccccc" />
      </g>
    </g>
  </g>
</svg>
