<?xml version="1.0" encoding="UTF-8" standalone="no"?>
<!-- Generator: Adobe Illustrator 22.1.0, SVG Export Plug-In . SVG Version: 6.00 Build 0)  -->

<svg
   xmlns:dc="http://purl.org/dc/elements/1.1/"
   xmlns:cc="http://creativecommons.org/ns#"
   xmlns:rdf="http://www.w3.org/1999/02/22-rdf-syntax-ns#"
   xmlns:svg="http://www.w3.org/2000/svg"
   xmlns="http://www.w3.org/2000/svg"
   xmlns:xlink="http://www.w3.org/1999/xlink"
   xmlns:sodipodi="http://sodipodi.sourceforge.net/DTD/sodipodi-0.dtd"
   xmlns:inkscape="http://www.inkscape.org/namespaces/inkscape"
   version="1.1"
   id="Layer_1"
   x="0px"
   y="0px"
   viewBox="0 0 200 200"
   style="enable-background:new 0 0 200 200;"
   xml:space="preserve"
   sodipodi:docname="documents.svg"
   inkscape:version="0.92.1 r15371"><metadata
     id="metadata68"><rdf:RDF><cc:Work
         rdf:about=""><dc:format>image/svg+xml</dc:format><dc:type
           rdf:resource="http://purl.org/dc/dcmitype/StillImage" /></cc:Work></rdf:RDF></metadata><defs
     id="defs66"><linearGradient
       inkscape:collect="always"
       xlink:href="#linearGradient4717"
       id="linearGradient4719-3-0"
       x1="31.855749"
       y1="260.6575"
       x2="31.631413"
       y2="296.10263"
       gradientUnits="userSpaceOnUse"
       gradientTransform="matrix(2.7810626,0,0,2.7810626,18.670337,-660.24321)" /><linearGradient
       inkscape:collect="always"
       id="linearGradient4717"><stop
         style="stop-color:#82cf4e;stop-opacity:1;"
         offset="0"
         id="stop4713" /><stop
         style="stop-color:#82cf4e;stop-opacity:0;"
         offset="1"
         id="stop4715" /></linearGradient></defs><sodipodi:namedview
     pagecolor="#ffffff"
     bordercolor="#666666"
     borderopacity="1"
     objecttolerance="10"
     gridtolerance="10"
     guidetolerance="10"
     inkscape:pageopacity="0"
     inkscape:pageshadow="2"
     inkscape:window-width="1914"
     inkscape:window-height="1008"
     id="namedview64"
     showgrid="false"
     inkscape:zoom="1.18"
     inkscape:cx="101.69492"
     inkscape:cy="100"
     inkscape:window-x="0"
     inkscape:window-y="24"
     inkscape:window-maximized="1"
     inkscape:current-layer="Layer_1" /><style
     type="text/css"
     id="style2">
	.st0{fill:#2DB0B2;}
	.st1{fill:#FFFFFF;}
	.st2{fill:#E69732;}
	.st3{fill:#0A1C28;}
</style><rect
     style="opacity:1;fill:#45af00;fill-opacity:1;stroke:none;stroke-width:2.4651556;stroke-linecap:round;stroke-linejoin:round;stroke-miterlimit:4;stroke-dasharray:none;stroke-opacity:1;paint-order:fill markers stroke"
     id="rect4491-5-6"
     width="183.16711"
     height="183.16711"
     x="7.5689859"
     y="9.2639027"
     ry="21.54907" /><rect
     style="opacity:1;fill:url(#linearGradient4719-3-0);fill-opacity:1;stroke:none;stroke-width:2.28389406;stroke-linecap:round;stroke-linejoin:round;stroke-miterlimit:4;stroke-dasharray:none;stroke-opacity:1;paint-order:fill markers stroke"
     id="rect4491-06-3-8"
     width="169.69893"
     height="169.69893"
     x="14.303093"
     y="15.997941"
     ry="19.964579" /><path
     style="opacity:1;fill:#e3ffd2;fill-opacity:1;stroke:none;stroke-width:1.4382422;stroke-linecap:round;stroke-linejoin:round;stroke-miterlimit:4;stroke-dasharray:none;stroke-opacity:1;paint-order:fill markers stroke"
     d="m 57.266466,41.136419 c -4.829117,0 -8.716424,3.887277 -8.716424,8.716424 V 153.83552 c 0,4.82914 3.887307,8.71643 8.716424,8.71643 H 139.1735 c 4.82917,0 8.71644,-3.88729 8.71644,-8.71643 V 67.940109 l -25.62733,-26.80369 z m 63.949974,2.000088 24.52308,25.651005 H 121.21644 Z M 71.348845,94.542613 h 52.984885 c 2.11397,0 3.8156,1.701597 3.8156,3.81557 0,2.113937 -1.70163,3.815567 -3.8156,3.815567 H 71.348845 c -2.113974,0 -3.815594,-1.70163 -3.815594,-3.815567 0,-2.113973 1.70162,-3.81557 3.815594,-3.81557 z m 0,15.098967 h 52.984885 c 2.11397,0 3.8156,1.70162 3.8156,3.81557 0,2.11398 -1.70163,3.81678 -3.8156,3.81678 H 71.348845 c -2.113974,0 -3.815594,-1.7028 -3.815594,-3.81678 0,-2.11395 1.70162,-3.81557 3.815594,-3.81557 z m 0,15.10019 h 52.984885 c 2.11397,0 3.8156,1.70159 3.8156,3.81557 0,2.11395 -1.70163,3.81553 -3.8156,3.81553 H 71.348845 c -2.113974,0 -3.815594,-1.70158 -3.815594,-3.81553 0,-2.11398 1.70162,-3.81557 3.815594,-3.81557 z"
     id="rect4979"
     inkscape:connector-curvature="0" /></svg>