<?xml version="1.0" encoding="UTF-8" standalone="no"?>
<!-- Created with Inkscape (http://www.inkscape.org/) -->

<svg
   xmlns:dc="http://purl.org/dc/elements/1.1/"
   xmlns:cc="http://creativecommons.org/ns#"
   xmlns:rdf="http://www.w3.org/1999/02/22-rdf-syntax-ns#"
   xmlns:svg="http://www.w3.org/2000/svg"
   xmlns="http://www.w3.org/2000/svg"
   xmlns:xlink="http://www.w3.org/1999/xlink"
   xmlns:sodipodi="http://sodipodi.sourceforge.net/DTD/sodipodi-0.dtd"
   xmlns:inkscape="http://www.inkscape.org/namespaces/inkscape"
   width="256"
   height="256"
   viewBox="0 0 67.733332 67.733335"
   version="1.1"
   id="svg18205"
   inkscape:version="0.92.1 r15371"
   sodipodi:docname="videos.svg">
  <defs
     id="defs18199">
    <linearGradient
       inkscape:collect="always"
       xlink:href="#linearGradient4717"
       id="linearGradient4719-9"
       x1="31.855749"
       y1="260.6575"
       x2="31.631413"
       y2="296.10263"
       gradientUnits="userSpaceOnUse"
       gradientTransform="matrix(0.94690745,0,0,0.94690745,6.4718569,4.4346622)" />
    <linearGradient
       inkscape:collect="always"
       id="linearGradient4717">
      <stop
         style="stop-color:#82cf4e;stop-opacity:1;"
         offset="0"
         id="stop4713" />
      <stop
         style="stop-color:#82cf4e;stop-opacity:0;"
         offset="1"
         id="stop4715" />
    </linearGradient>
  </defs>
  <sodipodi:namedview
     id="base"
     pagecolor="#ffffff"
     bordercolor="#666666"
     borderopacity="1.0"
     inkscape:pageopacity="0.0"
     inkscape:pageshadow="2"
     inkscape:zoom="1.1794051"
     inkscape:cx="42.319437"
     inkscape:cy="109.00751"
     inkscape:document-units="mm"
     inkscape:current-layer="layer1"
     showgrid="false"
     units="px"
     inkscape:window-width="1914"
     inkscape:window-height="1008"
     inkscape:window-x="0"
     inkscape:window-y="24"
     inkscape:window-maximized="1"
     inkscape:snap-global="false" />
  <metadata
     id="metadata18202">
    <rdf:RDF>
      <cc:Work
         rdf:about="">
        <dc:format>image/svg+xml</dc:format>
        <dc:type
           rdf:resource="http://purl.org/dc/dcmitype/StillImage" />
        <dc:title />
      </cc:Work>
    </rdf:RDF>
  </metadata>
  <g
     inkscape:label="Capa 1"
     inkscape:groupmode="layer"
     id="layer1"
     transform="translate(0,-229.26665)">
    <rect
       style="opacity:1;fill:#45af00;fill-opacity:1;stroke:none;stroke-width:0.83934611;stroke-linecap:round;stroke-linejoin:round;stroke-miterlimit:4;stroke-dasharray:none;stroke-opacity:1;paint-order:fill markers stroke"
       id="rect4491-2"
       width="62.365479"
       height="62.365479"
       x="2.6920362"
       y="232.39116"
       ry="7.3371143" />
    <rect
       style="opacity:1;fill:url(#linearGradient4719-9);fill-opacity:1;stroke:none;stroke-width:0.77762949;stroke-linecap:round;stroke-linejoin:round;stroke-miterlimit:4;stroke-dasharray:none;stroke-opacity:1;paint-order:fill markers stroke"
       id="rect4491-06-37"
       width="57.779781"
       height="57.779781"
       x="4.9848685"
       y="234.68402"
       ry="6.7976213" />
    <g
       id="g286-0-4-9-6-5"
       transform="matrix(0.70273437,0,0,-0.70273437,57.035139,258.9537)"
       style="fill:#e3ffd2;fill-opacity:1;stroke:none">
      <path
         d="m 0,0 -16.11,-8.674 v -9.914 L 0,-27.263 Z"
         style="fill:#e3ffd2;fill-opacity:1;fill-rule:nonzero;stroke:none"
         id="path288-6-4-0-2-9"
         inkscape:connector-curvature="0" />
    </g>
    <g
       id="g290-3-0-9-6-2"
       transform="matrix(0.77356857,0,0,-0.54890157,46.814295,276.48301)"
       style="fill:#e3ffd2;fill-opacity:1;stroke:none">
      <path
         d="m 0,0 c 0,-2.737 -2.219,-4.957 -4.957,-4.957 h -33.458 c -2.738,0 -4.957,2.22 -4.957,4.957 v 27.263 c 0,2.737 2.219,4.957 4.957,4.957 H -4.957 C -2.219,32.22 0,30 0,27.263 Z"
         style="fill:#e3ffd2;fill-opacity:1;fill-rule:nonzero;stroke:none"
         id="path292-2-6-1-1-2"
         inkscape:connector-curvature="0" />
    </g>
    <path
       style="opacity:1;fill:#e3ffd2;fill-opacity:1;stroke:none;stroke-width:0.78763801;stroke-linecap:round;stroke-linejoin:round;stroke-miterlimit:4;stroke-dasharray:none;stroke-opacity:1;paint-order:fill markers stroke"
       d="m 23.152655,247.36381 a 6.6038618,6.6038618 0 0 0 -6.603092,6.50063 6.6038618,6.6038618 0 0 0 6.396054,6.70398 6.6038618,6.6038618 0 0 0 6.803273,-6.29042 6.6038618,6.6038618 0 0 0 -6.1832,-6.90098 z m 0,3.50278 0.193834,0.006 a 3.1011202,3.1011202 0 0 1 2.903853,3.24082 3.1011202,3.1011202 0 0 1 -3.194874,2.95348 3.1011202,3.1011202 0 0 1 -3.003657,-3.14785 3.1011202,3.1011202 0 0 1 3.100844,-3.05278 z"
       id="path4560-8-8"
       inkscape:connector-curvature="0" />
    <path
       style="opacity:1;fill:#e3ffd2;fill-opacity:1;stroke:none;stroke-width:0.59014487;stroke-linecap:round;stroke-linejoin:round;stroke-miterlimit:4;stroke-dasharray:none;stroke-opacity:1;paint-order:fill markers stroke"
       d="m 34.411524,250.29617 a 4.9480028,4.9480028 0 0 0 -4.947298,4.8702 4.9480028,4.9480028 0 0 0 4.792537,5.02336 4.9480028,4.9480028 0 0 0 5.097304,-4.71333 4.9480028,4.9480028 0 0 0 -4.632504,-5.17072 z m 0,2.97304 0.123588,0.004 a 1.9749962,1.9749962 0 0 1 1.849097,2.06407 1.9749962,1.9749962 0 0 1 -2.03447,1.88132 1.9749962,1.9749962 0 0 1 -1.913006,-2.0049 1.9749962,1.9749962 0 0 1 1.974791,-1.94417 z"
       id="path4560-6-7-9"
       inkscape:connector-curvature="0" />
  </g>
</svg>
