<?xml version="1.0" encoding="UTF-8" standalone="no"?>
<!-- Created with Inkscape (http://www.inkscape.org/) -->

<svg
   xmlns:dc="http://purl.org/dc/elements/1.1/"
   xmlns:cc="http://creativecommons.org/ns#"
   xmlns:rdf="http://www.w3.org/1999/02/22-rdf-syntax-ns#"
   xmlns:svg="http://www.w3.org/2000/svg"
   xmlns="http://www.w3.org/2000/svg"
   xmlns:sodipodi="http://sodipodi.sourceforge.net/DTD/sodipodi-0.dtd"
   xmlns:inkscape="http://www.inkscape.org/namespaces/inkscape"
   width="256"
   height="256"
   viewBox="0 0 67.733332 67.733335"
   version="1.1"
   id="svg18205"
   inkscape:version="0.92.1 r15371"
   sodipodi:docname="icono_AGRO.svg">
  <defs
     id="defs18199">
    <clipPath
       clipPathUnits="userSpaceOnUse"
       id="clipPath9406-5-9-1-5-3-8-6-1-2-4-4-7-3">
      <rect
         style="opacity:0.73280005;fill:#ffdd55;fill-opacity:1;stroke:none;stroke-width:0.5;stroke-miterlimit:4;stroke-dasharray:none;stroke-opacity:1"
         id="rect9408-2-0-59-4-6-7-1-0-9-4-9-5-6"
         width="477.41364"
         height="539.93207"
         x="573.77612"
         y="244.1604" />
    </clipPath>
  </defs>
  <sodipodi:namedview
     id="base"
     pagecolor="#ffffff"
     bordercolor="#666666"
     borderopacity="1.0"
     inkscape:pageopacity="0.0"
     inkscape:pageshadow="2"
     inkscape:zoom="1.6650431"
     inkscape:cx="84.757175"
     inkscape:cy="189.71863"
     inkscape:document-units="mm"
     inkscape:current-layer="layer1"
     showgrid="false"
     units="px"
     inkscape:window-width="1914"
     inkscape:window-height="1008"
     inkscape:window-x="0"
     inkscape:window-y="24"
     inkscape:window-maximized="1"
     inkscape:snap-global="false" />
  <metadata
     id="metadata18202">
    <rdf:RDF>
      <cc:Work
         rdf:about="">
        <dc:format>image/svg+xml</dc:format>
        <dc:type
           rdf:resource="http://purl.org/dc/dcmitype/StillImage" />
        <dc:title></dc:title>
      </cc:Work>
    </rdf:RDF>
  </metadata>
  <g
     inkscape:label="Capa 1"
     inkscape:groupmode="layer"
     id="layer1"
     transform="translate(0,-229.26665)">
    <rect
       style="opacity:1;fill:#82cf4e;fill-opacity:1;stroke:none;stroke-width:0.81973845;stroke-linecap:round;stroke-linejoin:round;stroke-miterlimit:4;stroke-dasharray:none;stroke-opacity:1;paint-order:fill markers stroke"
       id="rect4491-06-9"
       width="60.811584"
       height="61.00573"
       x="4"
       y="231.99425"
       ry="7.1771441" />
    <rect
       style="opacity:1;fill:#45af00;fill-opacity:1;stroke:none;stroke-width:0.60177606;stroke-linecap:round;stroke-linejoin:round;stroke-miterlimit:4;stroke-dasharray:none;stroke-opacity:1;paint-order:fill markers stroke"
       id="rect4491-06-9-3"
       width="44.568565"
       height="44.85878"
       x="11.605474"
       y="239.07657"
       ry="5.277503" />
    <path
       style="display:inline;fill:#f4d7d7;fill-opacity:1;stroke:none;stroke-width:0.14569162"
       d="m 21.902383,252.68079 c -0.0833,-0.42481 -1.34109,-4.84429 -2.78442,-4.84946 -1.44332,-0.004 -3.48068,-0.0975 -3.06438,2.1965 0.41627,2.29387 1.42996,3.74083 3.04186,4.08629 1.61192,0.34532 3.22507,0.35111 3.22507,0.35111 z"
       id="path6937-9-4-0-5-1-0-01-1-9-3"
       inkscape:connector-curvature="0"
       mask="none"
       clip-path="none"
       sodipodi:nodetypes="cccccc"
       inkscape:export-filename="/home/alumno/Escritorio/video_tutorial/vaca_04B.png"
       inkscape:export-xdpi="94"
       inkscape:export-ydpi="94" />
    <path
       sodipodi:nodetypes="cccccccccc"
       inkscape:connector-curvature="0"
       style="display:inline;fill:#ffffff;stroke:none;stroke-width:0.40702891;stroke-miterlimit:4;stroke-dasharray:none"
       mask="none"
       clip-path="none"
       d="m 30.772543,245.31208 c -5.53446,0.0256 -8.57933,6.36209 -8.57933,6.36209 0,0 -0.0369,10.21386 -1.15498,17.24013 -1.013584,4.31605 -3.549101,11.78446 -5.579899,14.81347 14.161474,0.20676 22.622461,0.40272 35.993683,0.1569 -5.36054,-5.05701 -6.33013,-14.34399 -6.07083,-23.00114 0.0875,-2.04987 0.73475,-3.60613 -0.10143,-7.17498 -0.83626,-3.56896 -3.55044,-4.42734 -11.18008,-7.68106 -1.19215,-0.50838 -2.30217,-0.72109 -3.327064,-0.71639 z"
       id="path6935-0-4-61-1-9-7-6-3-3-6" />
    <path
       style="display:inline;fill:#d5f6ff;stroke:none;stroke-width:0.14569162"
       d="m 31.802707,257.90209 c 0,0 -2.293204,3.29375 -3.016394,4.07155 -0.72323,0.77788 -1.508713,2.97229 -1.629873,3.27198 -0.1211,0.29979 7.768077,9.41751 7.587097,9.65705 0.40582,4.02388 0.02988,9.16847 0.02988,9.16847 -4.788651,-0.0707 -9.742603,2.2e-4 -14.450587,-0.11758 -1.014958,-0.0254 -2.300498,0.0509 -3.323344,-0.0128 -0.570823,-0.0356 -1.197575,-0.074 -1.512846,-0.21367 1.406742,-1.81861 4.038805,-10.75403 5.098561,-13.87413 0.51768,-0.82217 1.519279,-11.87344 1.309129,-13.19322 -0.18893,-1.18584 0.397062,-7.91726 2.916162,-7.608 2.52038,0.30919 6.49581,-3.33875 7.262094,0.62638 0.76624,3.96507 -0.26964,8.22396 -0.26964,8.22396 z"
       id="path7012-4-2-5-1-4-8-02-7-1-7"
       inkscape:connector-curvature="0"
       sodipodi:nodetypes="cssccssccssscc"
       mask="none"
       clip-path="none"
       inkscape:export-filename="/home/alumno/Escritorio/video_tutorial/vaca_04B.png"
       inkscape:export-xdpi="94"
       inkscape:export-ydpi="94" />
    <path
       style="display:inline;fill:#000000;fill-opacity:1;stroke:#000000;stroke-width:0.0840494px;stroke-linecap:butt;stroke-linejoin:miter;stroke-opacity:1"
       d="m 34.402697,256.21742 c 0,0 0.98587,3.94001 1.66295,4.53678 0.67709,0.59673 3.22295,3.28646 5.89923,2.96185 2.63586,-0.31974 3.12155,-1.88938 3.12856,-3.84214 0.007,-1.95273 0.95303,-7.01083 -0.91392,-7.27223 -1.86693,-0.26146 -9.77682,3.61574 -9.77682,3.61574 z"
       id="path6983-98-7-9-0-7-6-8-8-9-5"
       inkscape:connector-curvature="0"
       sodipodi:nodetypes="cssssc"
       mask="none"
       clip-path="none"
       inkscape:export-filename="/home/alumno/Escritorio/video_tutorial/vaca_04B.png"
       inkscape:export-xdpi="94"
       inkscape:export-ydpi="94" />
    <path
       style="display:inline;fill:#f4d7d7;fill-opacity:1;stroke:none;stroke-width:0.14569162"
       d="m 45.698337,255.23909 c 0,0 2.22418,-4.66172 4.00714,-4.65531 1.78293,0.007 3.73628,-0.15645 3.3048,1.7948 -0.43152,1.95123 -0.94276,2.45884 -3.40827,3.3839 -2.46553,0.92516 -4.50407,1.17255 -4.50407,1.17255 z"
       id="path6939-3-5-1-4-3-1-4-0-4-3"
       inkscape:connector-curvature="0"
       mask="none"
       clip-path="none"
       sodipodi:nodetypes="ccsccc"
       inkscape:export-filename="/home/alumno/Escritorio/video_tutorial/vaca_04B.png"
       inkscape:export-xdpi="94"
       inkscape:export-ydpi="94" />
    <path
       style="display:inline;fill:#ffffff;fill-opacity:1;stroke:none;stroke-width:0.40702891;stroke-miterlimit:4;stroke-dasharray:none;stroke-opacity:1"
       d="m 45.558147,255.53615 c 1.45288,-3.2738 3.62538,-5.11518 5.11267,-3.11978 1.42709,1.91464 -3.00649,3.62491 -4.90941,3.92045 l -0.25218,0.63425 c 2.20221,0.70511 9.06553,-1.08509 8.7791,-4.27276 -0.17922,-1.9923 -1.06456,-3.31649 -2.47601,-3.56944 -0.84688,-0.15181 -1.88253,0.0826 -3.07108,0.78734 -2.82782,1.67691 -3.392,3.1771 -3.36884,5.11187"
       id="path5154-4-0-1-7-8-0-4-4-9-7-5"
       inkscape:connector-curvature="0"
       sodipodi:nodetypes="csccsssc"
       mask="none"
       clip-path="none"
       inkscape:export-filename="/home/alumno/Escritorio/video_tutorial/vaca_04B.png"
       inkscape:export-xdpi="94"
       inkscape:export-ydpi="94" />
    <path
       sodipodi:type="arc"
       style="display:inline;fill:#ffffff;fill-opacity:1;stroke:none;stroke-width:0.0840494"
       id="path6985-4-6-77-6-6-9-91-5-8-6"
       sodipodi:cx="40.839542"
       sodipodi:cy="255.41327"
       sodipodi:rx="4.8394547"
       sodipodi:ry="5.0092597"
       d="m 45.665008,255.03266 a 4.8394547,5.0092597 0 0 1 -4.431413,5.37324 4.8394547,5.0092597 0 0 1 -5.215214,-4.55749 4.8394547,5.0092597 0 0 1 4.374445,-5.42301 4.8394547,5.0092597 0 0 1 5.262998,4.49824"
       transform="rotate(0.20537661)"
       sodipodi:start="6.2071318"
       sodipodi:end="6.1852847"
       sodipodi:open="true"
       mask="none"
       clip-path="none"
       inkscape:export-filename="/home/alumno/Escritorio/video_tutorial/vaca_04B.png"
       inkscape:export-xdpi="94"
       inkscape:export-ydpi="94" />
    <path
       transform="rotate(0.20537661)"
       sodipodi:type="arc"
       style="display:inline;fill:#ffffff;fill-opacity:1;stroke:none;stroke-width:0.0840494"
       id="path6985-6-2-3-1-2-1-2-7-2-4-2"
       sodipodi:cx="28.464329"
       sodipodi:cy="255.08475"
       sodipodi:rx="4.8394547"
       sodipodi:ry="5.0092597"
       d="m 33.289794,254.70414 a 4.8394547,5.0092597 0 0 1 -4.431412,5.37323 4.8394547,5.0092597 0 0 1 -5.215214,-4.55748 4.8394547,5.0092597 0 0 1 4.374444,-5.42302 4.8394547,5.0092597 0 0 1 5.262998,4.49825"
       sodipodi:start="6.2071318"
       sodipodi:end="6.1852847"
       sodipodi:open="true"
       mask="none"
       clip-path="none"
       inkscape:export-filename="/home/alumno/Escritorio/video_tutorial/vaca_04B.png"
       inkscape:export-xdpi="94"
       inkscape:export-ydpi="94" />
    <path
       style="display:inline;fill:#ffffff;fill-opacity:1;stroke:none;stroke-width:0.40702891;stroke-miterlimit:4;stroke-dasharray:none;stroke-opacity:1"
       d="m 21.480543,253.36708 c -0.85384,-3.47845 -2.66826,-5.67355 -4.48359,-3.97109 -1.74188,1.63355 2.321391,4.09756 4.142571,4.72347 l 0.13657,0.66879 c -2.29196,0.30637 -8.732891,-2.6641 -7.889781,-5.7516 0.52694,-1.92966 1.63179,-3.07733 3.06573,-3.07781 0.86035,-3.1e-4 1.8386,0.41272 2.88449,1.31572 2.48847,2.14852 2.77971,3.72459 2.41632,5.62509"
       id="path5154-0-4-7-2-2-0-5-1-5-9"
       inkscape:connector-curvature="0"
       sodipodi:nodetypes="csccsssc"
       mask="none"
       clip-path="none"
       inkscape:export-filename="/home/alumno/Escritorio/video_tutorial/vaca_04B.png"
       inkscape:export-xdpi="94"
       inkscape:export-ydpi="94" />
    <path
       style="display:inline;fill:#9d8167;fill-opacity:1;stroke:none;stroke-width:0.23942877;stroke-miterlimit:4;stroke-dasharray:none"
       d="m 33.994797,241.78773 c -12.738483,-0.15866 -12.503234,10.64904 -12.764894,13.14224 -0.261679,2.49317 -1.72722,8.08485 -1.20563,8.59087 0.521621,0.50607 0.69895,0.11579 1.16729,-0.29784 0.43,-0.37981 0.99562,-6.15218 0.91127,-7.0791 0.0961,0.77793 0.76341,3.77436 5.40504,4.51344 3.17807,0.50604 5.003974,-3.13363 5.733884,-3.69076 0.72991,-0.55713 1.61921,-0.2846 2.12624,0.35169 0.50703,0.6363 0.36629,3.40561 4.3826,3.97922 3.22499,0.46054 5.0262,-3.37288 5.0262,-3.37288 0,0 1.38254,4.86539 1.94219,5.53583 0.79426,0.9516 1.60668,0.24228 1.36608,-0.80935 -0.31867,-1.39295 -2.91761,-3.59705 -2.37025,-7.75158 0.54736,-4.15452 -0.48217,-12.9717 -11.72002,-13.11178 z m -6.882604,9.64432 c 2.0314,-0.0484 3.77204,1.56463 3.96508,3.71754 l 0.009,0.0886 c 0.15557,2.2613 -1.45969,4.22838 -3.60767,4.39292 -2.14799,0.1644 -4.0162,-1.53434 -4.1717,-3.79558 -0.15557,-2.26126 1.45973,-4.22833 3.6077,-4.39296 0.0661,-0.004 0.13236,-0.009 0.19777,-0.009 z m 12.491414,-0.2989 c 2.16372,-0.0508 4.01957,1.62772 4.22542,3.8683 l 0.007,0.0919 c 0.16596,2.3533 -1.55283,4.40114 -3.84065,4.5722 -2.28787,0.17125 -4.27726,-1.59723 -4.4431,-3.95053 -0.16596,-2.35329 1.55278,-4.40111 3.84065,-4.57217 0.0705,-0.004 0.14032,-0.009 0.21015,-0.009 z"
       id="path5152-7-9-1-5-0-6-7-3-0-1"
       inkscape:connector-curvature="0"
       sodipodi:nodetypes="sssscsssscsssscccsscscccsscccc"
       mask="none"
       clip-path="none"
       inkscape:export-filename="/home/alumno/Escritorio/video_tutorial/vaca_04B.png"
       inkscape:export-xdpi="94"
       inkscape:export-ydpi="94" />
    <path
       style="display:inline;fill:#000000;fill-opacity:1;stroke:none;stroke-width:0.14569162"
       d="m 23.941763,245.78875 c -0.63549,-0.65893 -2.67557,-3.91797 -2.00044,-4.67195 1.42716,-1.59404 4.02411,2.87209 4.02411,2.87209 0,0 -1.46665,0.90349 -2.02367,1.79986 z"
       id="path5962-64-1-5-8-6-8-6-2-3-2"
       inkscape:connector-curvature="0"
       sodipodi:nodetypes="cscc"
       mask="none"
       clip-path="none"
       inkscape:export-filename="/home/alumno/Escritorio/video_tutorial/vaca_04B.png"
       inkscape:export-xdpi="94"
       inkscape:export-ydpi="94" />
    <path
       style="display:inline;fill:#000000;fill-opacity:1;stroke:none;stroke-width:0.14569162"
       d="m 42.275217,244.51561 c 0,0 3.24733,-3.71693 3.90058,-2.86773 1.08388,1.40906 -1.23243,4.47547 -2.31045,4.76458 -0.65186,-1.34834 -1.59013,-1.89685 -1.59013,-1.89685 z"
       id="path5964-7-1-9-6-3-9-2-7-6-7"
       inkscape:connector-curvature="0"
       sodipodi:nodetypes="cscc"
       mask="none"
       clip-path="none"
       inkscape:export-filename="/home/alumno/Escritorio/video_tutorial/vaca_04B.png"
       inkscape:export-xdpi="94"
       inkscape:export-ydpi="94" />
    <path
       style="display:inline;fill:#aaeeff;stroke:none;stroke-width:0.14569162"
       d="m 35.407967,254.07724 c 0,0 1.55997,-3.22665 4.27804,-3.25343 2.69734,0.042 3.57882,1.5245 4.18891,3.85687 0,0 -0.39409,-2.56975 -1.09149,-3.42126 -0.72375,-0.88369 -2.01094,-1.53548 -3.26342,-1.49747 -1.17361,0.0356 -2.59246,0.81845 -3.27557,1.89852 -0.66154,1.04604 -0.83647,2.41677 -0.83647,2.41677 z"
       id="path6961-0-7-6-4-6-2-4-3-1-0"
       inkscape:connector-curvature="0"
       sodipodi:nodetypes="cccsssc"
       mask="none"
       clip-path="none"
       inkscape:export-filename="/home/alumno/Escritorio/video_tutorial/vaca_04B.png"
       inkscape:export-xdpi="94"
       inkscape:export-ydpi="94" />
    <path
       style="display:inline;fill:#aaeeff;stroke:none;stroke-width:0.14569162"
       d="m 22.915413,254.40492 c 0,0 1.55997,-3.22669 4.27803,-3.25349 2.69734,0.042 3.57882,1.52457 4.18889,3.85694 0,0 -0.39409,-2.56977 -1.09147,-3.42126 -0.72375,-0.88373 -2.01094,-1.53549 -3.26342,-1.49754 -1.17361,0.0356 -2.59248,0.81852 -3.27557,1.89855 -0.66156,1.04601 -0.83646,2.4168 -0.83646,2.4168 z"
       id="path6961-8-5-1-73-7-1-6-2-3-0-9"
       inkscape:connector-curvature="0"
       sodipodi:nodetypes="cccsssc"
       mask="none"
       clip-path="none"
       inkscape:export-filename="/home/alumno/Escritorio/video_tutorial/vaca_04B.png"
       inkscape:export-xdpi="94"
       inkscape:export-ydpi="94" />
    <path
       style="display:inline;fill:#aaeeff;fill-opacity:1;stroke:none;stroke-width:0.14569162"
       d="m 31.271053,253.48933 0.29379,0.93495 c 0,0 0.806904,-0.0818 1.953064,-0.0778 0.97637,0.004 1.613,0.0484 1.613,0.0484 l 0.34327,-1.0176 c 0,0 -0.72215,0.12463 -2.03812,0.11999 -1.31601,-0.004 -2.165004,-0.007 -2.165004,-0.007 z"
       id="path6981-2-8-65-2-5-6-5-2-6-3"
       inkscape:connector-curvature="0"
       sodipodi:nodetypes="ccsccsc"
       mask="none"
       clip-path="none"
       inkscape:export-filename="/home/alumno/Escritorio/video_tutorial/vaca_04B.png"
       inkscape:export-xdpi="94"
       inkscape:export-ydpi="94" />
    <g
       style="display:inline"
       id="g3747-6-9-6-7-5-52-3-3-6"
       transform="matrix(0.08404887,3.012731e-4,-3.012731e-4,0.08404887,-300.47867,211.67608)"
       inkscape:export-filename="/home/alumno/Escritorio/video_tutorial/vaca_04B.png"
       inkscape:export-xdpi="94"
       inkscape:export-ydpi="94"
       mask="none"
       clip-path="none">
      <path
         inkscape:connector-curvature="0"
         id="path5156-8-51-3-4-2-65-0-9-8-2-0"
         d="m 3940.927,505.10211 c 1.516,21.18198 -13.383,39.66183 -33.2779,41.27592 -19.8948,1.61402 -37.2518,-14.24882 -38.7678,-35.43079 -1.516,-21.18198 13.383,-39.66183 33.2779,-41.27593 19.5882,-1.58914 36.7791,13.77787 38.6993,34.59367"
         style="display:inline;fill:#000000;fill-opacity:1;stroke:none" />
      <path
         inkscape:connector-curvature="0"
         id="path5156-8-5-6-3-8-9-6-4-77-6-0-6"
         d="m 4085.6179,501.7779 c 1.516,21.18199 -13.383,39.66183 -33.2779,41.27592 -19.8948,1.61402 -37.2518,-14.24882 -38.7678,-35.43078 -1.516,-21.18198 13.383,-39.66183 33.2779,-41.27593 19.5882,-1.58914 36.7791,13.77787 38.6993,34.59366"
         style="display:inline;fill:#000000;fill-opacity:1;stroke:none" />
    </g>
    <g
       style="display:inline"
       id="g3741-7-12-9-9-8-6-1-6-2"
       transform="matrix(0.08404887,3.012731e-4,-3.012731e-4,0.08404887,-301.6898,212.16811)"
       inkscape:export-filename="/home/alumno/Escritorio/video_tutorial/vaca_04B.png"
       inkscape:export-xdpi="94"
       inkscape:export-ydpi="94"
       mask="none"
       clip-path="none">
      <path
         sodipodi:nodetypes="csscsc"
         inkscape:connector-curvature="0"
         id="path6987-0-1-4-7-9-0-3-7-8-6-1-6"
         d="m 4023.8296,473.02454 c 0,0 31.1922,2.90819 41.5179,15.18716 10.3258,12.27898 12.391,21.97292 24.0936,28.43554 11.7025,6.46262 17.2097,3.87758 17.2097,3.87758 0,0 18.1056,-45.96608 -22.7168,-66.88816 -38.5778,-19.77166 -60.1044,19.38788 -60.1044,19.38788 z"
         style="display:inline;opacity:0.43000004;fill:#e6e6e6;stroke:none" />
      <path
         sodipodi:open="true"
         sodipodi:end="6.1852847"
         sodipodi:start="6.2071318"
         transform="translate(4501.6594,-306.73121)"
         d="m -419.74028,780.82137 a 7.5761442,8.586297 0 0 1 -6.93736,9.21017 7.5761442,8.586297 0 0 1 -8.16439,-7.81192 7.5761442,8.586297 0 0 1 6.84817,-9.2955 7.5761442,8.586297 0 0 1 8.2392,7.71037"
         sodipodi:ry="8.586297"
         sodipodi:rx="7.5761442"
         sodipodi:cy="781.47375"
         sodipodi:cx="-427.29453"
         id="path6989-1-1-3-8-7-1-1-0-5-1"
         style="display:inline;fill:#ffffff;fill-opacity:1;stroke:none"
         sodipodi:type="arc" />
      <path
         sodipodi:nodetypes="csscsc"
         inkscape:connector-curvature="0"
         id="path6987-0-2-1-9-1-4-7-20-9-5-8"
         d="m 3873.8164,477.45607 c 0,0 31.1922,2.90819 41.5179,15.18716 10.3258,12.27898 12.391,21.97292 24.0936,28.43554 11.7025,6.46262 17.2097,3.87758 17.2097,3.87758 0,0 18.1056,-45.96608 -22.7168,-66.88816 -38.5778,-19.77166 -60.1044,19.38788 -60.1044,19.38788 z"
         style="display:inline;opacity:0.43000004;fill:#e6e6e6;stroke:none" />
      <path
         sodipodi:open="true"
         sodipodi:end="6.1852847"
         sodipodi:start="6.2071318"
         transform="translate(4351.3765,-304.15304)"
         d="m -419.74028,780.82137 a 7.5761442,8.586297 0 0 1 -6.93736,9.21017 7.5761442,8.586297 0 0 1 -8.16439,-7.81192 7.5761442,8.586297 0 0 1 6.84817,-9.2955 7.5761442,8.586297 0 0 1 8.2392,7.71037"
         sodipodi:ry="8.586297"
         sodipodi:rx="7.5761442"
         sodipodi:cy="781.47375"
         sodipodi:cx="-427.29453"
         id="path6989-6-9-7-0-3-5-2-3-1-4-7"
         style="display:inline;fill:#ffffff;fill-opacity:1;stroke:none"
         sodipodi:type="arc" />
    </g>
    <g
       id="g13378-9-4-1-6-9"
       transform="matrix(0.25247842,0.10598635,-0.10598635,0.25247842,161.1906,118.90351)"
       style="stroke:none">
      <path
         inkscape:connector-curvature="0"
         id="path7018-2-8-1-3-4-2-6-5-5-2"
         d="m -238.60557,697.21187 6.10743,5.46876 c 0,0 19.45476,-3.67235 23.3039,-6.35926 3.84912,-2.68695 11.2011,-9.03004 11.2011,-9.03004 l -0.18082,-5.4004 c 0,0 -12.86253,10.4981 -20.43665,12.54858 -7.57413,2.05048 -19.99496,2.77236 -19.99496,2.77236 z"
         style="display:inline;fill:#000000;fill-opacity:1;stroke:none;stroke-width:0.2881951px;stroke-linecap:butt;stroke-linejoin:miter;stroke-opacity:1" />
      <path
         sodipodi:nodetypes="ccszcsc"
         inkscape:connector-curvature="0"
         id="path13288-4-2-3-2-3-0-6-0"
         d="m -240.41583,690.96378 9.2859,11.6438 c 0,0 18.01184,-3.70022 23.1913,-5.55088 5.17938,-1.85063 9.99282,-8.1316 11.41702,-12.99371 1.42418,-4.86211 -1.97093,-12.95229 -1.97093,-12.95229 0,0 -21.2117,14.43512 -26.74027,18.03294 -5.52853,3.5978 -15.18302,1.82014 -15.18302,1.82014 z"
         style="fill:#c83737;stroke:none;stroke-width:0.42778683px;stroke-linecap:butt;stroke-linejoin:miter;stroke-opacity:1" />
      <path
         inkscape:connector-curvature="0"
         id="path13290-5-1-1-8-8-9-9-2"
         d="m -231.42499,689.83022 3.572,3.08311 c 0,0 18.18316,-6.72641 19.35283,-8.06212 1.16967,-1.3357 -0.35513,-6.98584 -0.35513,-6.98584 l -15.18885,5.42708 z"
         style="fill:#ffffff;stroke:none;stroke-width:0.28222224" />
      <path
         sodipodi:nodetypes="sscczsccs"
         inkscape:connector-curvature="0"
         id="path5150-81-5-0-5-4-9-0-4-3-3"
         d="m -243.00049,690.68067 c 7.05985,5.7644 13.9791,-1.05847 25.24227,-5.78868 11.25382,-4.72625 18.41577,-3.79439 19.68055,-14.06652 -0.68636,-7.86298 -3.2195,-9.24104 -6.17886,-6.03392 -0.82759,-4.24309 -3.20978,-3.33106 -7.21746,-3.30006 -4.00767,0.031 -5.45551,6.44507 -13.063,9.23597 -3.80373,1.39544 -10.33343,-1.00256 -14.69833,-0.93654 -6.29837,1.1639 -6.04006,5.26196 -6.44285,10.52085 -5.33851,1.334 0.25787,8.39313 2.67768,10.3689 z"
         style="display:inline;fill:#deccd8;fill-opacity:1;stroke:none;stroke-width:0.28222224" />
      <path
         inkscape:connector-curvature="0"
         id="path13290-5-2-1-6-7-4-9-7-7"
         d="m -227.43837,698.90984 0.40589,-4.70109 c 0,0 17.71593,-7.87515 19.48583,-7.73507 1.76993,0.14004 4.62184,5.2504 4.62184,5.2504 l -14.66481,6.71556 z"
         style="fill:#ffffff;stroke:none;stroke-width:0.28222224" />
      <path
         sodipodi:nodetypes="zszz"
         inkscape:connector-curvature="0"
         id="path6030-7-6-7-0-9-3-9-6-4-5"
         d="m -233.91216,696.20857 c 13.23388,4.9675 23.39946,-1.61264 37.60998,-14.49742 2.27495,-2.06271 2.12717,18.32356 -15.62197,25.13221 -17.74911,6.80868 -35.22189,-15.60229 -21.98801,-10.63479 z"
         style="display:inline;fill:#deccd8;fill-opacity:1;stroke:none;stroke-width:0.28222224" />
      <path
         sodipodi:open="true"
         sodipodi:end="6.1852847"
         sodipodi:start="6.2071318"
         transform="rotate(-19.662187)"
         d="m -415.24992,561.96398 a 5.455122,4.1170731 0 0 1 -4.99517,4.41622 5.455122,4.1170731 0 0 1 -5.87868,-3.74577 5.455122,4.1170731 0 0 1 4.93095,-4.45713 5.455122,4.1170731 0 0 1 5.93255,3.69707"
         sodipodi:ry="4.1170731"
         sodipodi:rx="5.455122"
         sodipodi:cy="562.27679"
         sodipodi:cx="-420.68927"
         id="path7014-8-3-4-0-4-6-7-8-5-9"
         style="display:inline;fill:#000000;fill-opacity:1;stroke:none;stroke-width:0.28222221"
         sodipodi:type="arc" />
      <path
         sodipodi:open="true"
         sodipodi:end="6.1852847"
         sodipodi:start="6.2071318"
         transform="rotate(-19.662187)"
         d="m -448.39173,559.8103 a 5.2492676,4.0141459 0 0 1 -4.80667,4.30581 5.2492676,4.0141459 0 0 1 -5.65685,-3.65212 5.2492676,4.0141459 0 0 1 4.74488,-4.3457 5.2492676,4.0141459 0 0 1 5.70868,3.60465"
         sodipodi:ry="4.0141459"
         sodipodi:rx="5.2492676"
         sodipodi:cy="560.1153"
         sodipodi:cx="-453.62582"
         id="path7016-3-1-5-4-2-1-9-2-2-2"
         style="display:inline;fill:#000000;fill-opacity:1;stroke:none;stroke-width:0.28222221"
         sodipodi:type="arc" />
    </g>
    <g
       transform="matrix(0.47055167,0,0,0.47055167,19.758382,-9.2429305)"
       id="g5414-6-1-5-2">
      <path
         sodipodi:nodetypes="ccccc"
         inkscape:connector-curvature="0"
         id="path5205-8-7-4-8"
         d="m 18.753866,551.83192 -0.661901,-1.02964 c 8.652935,-7.7149 21.77494,-9.54406 32.65379,-9.78141 -0.09864,-0.84624 3.973259,2.87015 -0.147089,2.57407 -10.235981,1.60976 -21.796614,5.12487 -31.8448,8.23698 z"
         style="fill:#005e00;fill-opacity:1;fill-rule:evenodd;stroke:none;stroke-width:0.26458332px;stroke-linecap:butt;stroke-linejoin:miter;stroke-opacity:1" />
      <path
         sodipodi:nodetypes="ccccccsssccc"
         inkscape:connector-curvature="0"
         id="path5203-9-2-7-9"
         d="m 4.9710248,554.39886 c 5.4719752,3.45169 19.6058962,-7.08423 26.1302712,-8.87156 5.368225,-1.47062 12.242834,-1.59673 16.968637,-3.32289 2.422794,-0.88494 3.343496,2.89985 5.765772,2.01507 4.458418,-0.81782 4.694013,-6.09031 3.09528,-10.76793 -2.758156,-4.66685 -3.788023,-6.2136 -8.126801,-7.68951 -5.918143,-1.98353 -13.674666,-2.41989 -21.153658,-1.93208 -0.282453,0.0184 -0.705682,0.0422 -1.124231,0.0671 -0.397073,0.0236 -0.789935,0.0483 -1.054394,0.0705 -9.195831,0.77109 -17.2152941,2.8898 -19.1308491,5.12718 -8.0790173,4.42645 -11.346867,22.57099 -1.3700271,25.30411 z"
         style="fill:#008000;fill-rule:evenodd;stroke:#006500;stroke-width:0.22057384px;stroke-linecap:butt;stroke-linejoin:miter;stroke-opacity:1" />
      <path
         sodipodi:nodetypes="ccccc"
         inkscape:connector-curvature="0"
         id="path5211-2-7-4-7"
         d="m 25.279037,533.34605 c 0.382724,-1.69646 -0.494275,-4.40614 -1.781015,-5.76938 l 2.615004,-0.41168 c 0.375377,1.43071 0.67462,4.07915 0.243378,5.83187 z"
         style="fill:#006700;fill-opacity:1;fill-rule:evenodd;stroke:none;stroke-width:0.3327235px;stroke-linecap:butt;stroke-linejoin:miter;stroke-opacity:1" />
      <path
         sodipodi:nodetypes="cccsc"
         inkscape:connector-curvature="0"
         id="path5215-6-2-4-3"
         d="m 18.964855,524.99052 c -26.3641731,-0.24956 -28.0386752,36.78573 -5.909339,29.40928 6.166067,-2.05537 11.770904,-6.57736 18.002871,-9.07016 1.567956,-0.0652 20.071259,-3.2182 18.415149,-3.57309 -17.521407,-3.75464 -45.3444773,10.40786 -30.508681,-16.76603 z"
         style="fill:#007600;fill-opacity:1;fill-rule:evenodd;stroke:none;stroke-width:0.26458332px;stroke-linecap:butt;stroke-linejoin:miter;stroke-opacity:1" />
    </g>
    <path
       style="fill:#0091b5;fill-opacity:1;fill-rule:evenodd;stroke:none;stroke-width:0.11557663px;stroke-linecap:butt;stroke-linejoin:miter;stroke-opacity:1"
       d="m 33.976547,277.51582 c 5.21949,0.99213 7.38274,-0.73704 12.48112,-3.82809 -0.38863,-0.74209 -0.237074,-2.25753 -0.586914,-2.72933 -5.35455,2.95063 -7.909126,5.95103 -11.490026,5.65108 z"
       id="path5512-7-5-3-6"
       inkscape:connector-curvature="0"
       sodipodi:nodetypes="ccccc" />
    <path
       style="fill:#0091b5;fill-opacity:1;fill-rule:evenodd;stroke:none;stroke-width:0.11557663px;stroke-linecap:butt;stroke-linejoin:miter;stroke-opacity:1"
       d="m 33.062167,277.58717 c -5.219494,0.99211 -8.483797,-1.51529 -13.582177,-4.60636 0.3502,-0.81896 0.427333,-1.72519 0.815614,-2.54292 5.354539,2.95063 8.896789,6.85037 12.477693,6.55042 z"
       id="path5512-7-5-9-0-1"
       inkscape:connector-curvature="0"
       sodipodi:nodetypes="ccccc" />
    <g
       id="g5704-7-2"
       transform="matrix(0.41453689,0,0,0.39153062,-102.46451,19.181776)">
      <path
         sodipodi:nodetypes="ccscc"
         inkscape:connector-curvature="0"
         id="path5277-4-2-8-9"
         d="m 327.24688,662.33572 c -15.42688,8.25106 -6.99899,23.23758 -7.81532,33.56231 1.71962,-2.12413 2.67711,-1.45674 4.08931,-4.07293 3.40184,-6.30212 6.28424,-17.44702 5.95897,-29.71464 z"
         style="fill:#00aad4;fill-opacity:1;fill-rule:evenodd;stroke:none;stroke-width:0.697671px;stroke-linecap:butt;stroke-linejoin:miter;stroke-opacity:1" />
      <path
         sodipodi:nodetypes="cccc"
         inkscape:connector-curvature="0"
         id="path5277-9-9-6-6-3"
         d="m 330.22397,661.03142 c 15.42688,7.2132 5.08503,14.99787 5.90136,24.0239 -5.86203,-6.33013 -8.59461,-9.04422 -8.13432,-24.22081 z"
         style="fill:#00aad4;fill-opacity:1;fill-rule:evenodd;stroke:none;stroke-width:0.65231878px;stroke-linecap:butt;stroke-linejoin:miter;stroke-opacity:1" />
      <path
         sodipodi:nodetypes="csccccccc"
         inkscape:connector-curvature="0"
         id="path5309-5-1-8-1"
         d="m 327.11725,662.54574 c -1.43574,0.0287 -6.09396,4.03989 -7.09655,6.49373 -0.18017,0.44099 0.24436,0.8059 0.59848,0.85906 2.3899,1.59323 3.60186,-2.51142 5.71183,-1.72019 2.32184,1.80575 2.46956,5.71298 2.7176,5.91843 -1.88058,-24.85911 10.6392,1.02863 7.74989,-8.51238 -1.6024,-1.57491 -3.54391,-4.00905 -5.77263,-4.27075 -1.72463,-0.11912 -2.76788,0.57674 -4.26213,0.79021 z"
         style="fill:#0097bc;fill-opacity:1;fill-rule:evenodd;stroke:none;stroke-width:0.33852673px;stroke-linecap:butt;stroke-linejoin:miter;stroke-opacity:1" />
      <path
         sodipodi:nodetypes="cccc"
         inkscape:connector-curvature="0"
         id="path5311-4-6-8-9"
         d="m 323.63677,667.98899 c -3.18177,7.19243 -4.45988,14.38485 -4.04573,21.57728 1.24043,-5.93395 2.01147,-18.55245 5.73146,-22.42011 z"
         style="fill:#0097bc;fill-opacity:1;fill-rule:evenodd;stroke:none;stroke-width:0.33852673px;stroke-linecap:butt;stroke-linejoin:miter;stroke-opacity:1" />
      <path
         sodipodi:nodetypes="cccc"
         inkscape:connector-curvature="0"
         id="path5311-0-8-1-4-4"
         d="m 331.85505,662.95602 c 2.44287,3.62324 3.42417,7.2465 3.1062,10.86974 -0.95237,-2.98928 -1.54435,-9.34597 -4.40045,-11.29434 z"
         style="fill:#0097bc;fill-opacity:1;fill-rule:evenodd;stroke:none;stroke-width:0.21053299px;stroke-linecap:butt;stroke-linejoin:miter;stroke-opacity:1" />
      <path
         sodipodi:nodetypes="ccccc"
         inkscape:connector-curvature="0"
         id="path5275-0-0-3-7"
         d="m 324.41959,658.52751 c -1.30711,-1.93272 8.77189,-2.97151 9.56549,-1.02095 1.95138,1.68189 -2.20973,5.87131 -5.26592,5.74956 l -1.07538,-0.12128 c -2.61117,-1.33085 -2.39988,-3.04022 -3.22419,-4.60733 z"
         style="fill:#00aad4;fill-opacity:1;fill-rule:evenodd;stroke:none;stroke-width:0.44303313px;stroke-linecap:butt;stroke-linejoin:miter;stroke-opacity:1" />
    </g>
  </g>
</svg>
